<svg width="16" height="16" viewBox="0 0 16 16" fill="#ffffff" xmlns="http://www.w3.org/2000/svg">
<path d="M13.0391 7.06274H8.9375C8.56454 7.06274 8.20685 6.91458 7.94313 6.65086C7.67941 6.38714 7.53125 6.02945 7.53125 5.65649V1.55493C7.53125 1.52385 7.5189 1.49404 7.49693 1.47207C7.47495 1.45009 7.44514 1.43774 7.41406 1.43774H4.71875C4.22147 1.43774 3.74456 1.63529 3.39292 1.98692C3.04129 2.33855 2.84375 2.81546 2.84375 3.31274V12.6877C2.84375 13.185 3.04129 13.6619 3.39292 14.0136C3.74456 14.3652 4.22147 14.5627 4.71875 14.5627H11.2812C11.7785 14.5627 12.2554 14.3652 12.6071 14.0136C12.9587 13.6619 13.1562 13.185 13.1562 12.6877V7.17993C13.1562 7.14885 13.1439 7.11904 13.1219 7.09707C13.0999 7.07509 13.0701 7.06274 13.0391 7.06274Z" fill="#ffffff"/>
<path d="M12.7818 6.026L8.56865 1.81282C8.56046 1.80467 8.55004 1.79913 8.53871 1.79689C8.52737 1.79465 8.51563 1.79581 8.50495 1.80022C8.49428 1.80464 8.48514 1.81211 8.4787 1.8217C8.47226 1.83129 8.4688 1.84257 8.46875 1.85412V5.65715C8.46875 5.78147 8.51814 5.9007 8.60604 5.98861C8.69395 6.07652 8.81318 6.1259 8.9375 6.1259H12.7405C12.7521 6.12585 12.7634 6.12239 12.773 6.11595C12.7825 6.10951 12.79 6.10037 12.7944 6.0897C12.7988 6.07902 12.8 6.06728 12.7978 6.05594C12.7955 6.04461 12.79 6.03419 12.7818 6.026Z" fill="#ffffff"/>
</svg>
