<svg width="16" height="15" viewBox="0 0 16 15" fill="none" xmlns="http://www.w3.org/2000/svg">
<path d="M14.2563 3.53136C14.2226 3.46571 14.1738 3.40896 14.1139 3.36574C14.0541 3.32251 13.9849 3.29403 13.912 3.2826C13.8391 3.27118 13.7645 3.27715 13.6943 3.30001C13.6241 3.32287 13.5603 3.36199 13.5081 3.41417L11.7081 5.21534C11.6197 5.30242 11.5006 5.35123 11.3766 5.35123C11.2525 5.35123 11.1334 5.30242 11.0451 5.21534L10.267 4.43604C10.2234 4.39252 10.1889 4.34084 10.1653 4.28396C10.1418 4.22708 10.1296 4.16612 10.1296 4.10455C10.1296 4.04298 10.1418 3.98202 10.1653 3.92514C10.1889 3.86826 10.2234 3.81659 10.267 3.77306L12.0593 1.98038C12.1131 1.92666 12.1529 1.86068 12.1755 1.78812C12.1981 1.71557 12.2027 1.63861 12.1889 1.56389C12.1751 1.48917 12.1434 1.41892 12.0964 1.35918C12.0494 1.29945 11.9887 1.25203 11.9193 1.22101C10.5655 0.615733 8.87566 0.931553 7.81013 1.98917C6.90486 2.888 6.63503 4.29249 7.07038 5.84259C7.09386 5.92525 7.09399 6.01279 7.07077 6.09553C7.04756 6.17826 7.00189 6.25296 6.93884 6.31134L2.0615 10.7659C1.87149 10.9365 1.71823 11.144 1.61107 11.3758C1.5039 11.6076 1.44508 11.8588 1.43819 12.1141C1.43129 12.3693 1.47647 12.6233 1.57098 12.8605C1.66548 13.0978 1.80732 13.3132 1.98784 13.4938C2.16836 13.6745 2.38379 13.8164 2.62097 13.911C2.85816 14.0056 3.11213 14.0509 3.36739 14.0441C3.62266 14.0373 3.87387 13.9786 4.1057 13.8716C4.33753 13.7645 4.54511 13.6113 4.71579 13.4214L9.21814 8.53321C9.27568 8.47097 9.34911 8.42561 9.43052 8.40202C9.51194 8.37843 9.59824 8.37749 9.68015 8.39932C10.1215 8.52024 10.5767 8.58298 11.0342 8.58595C12.0128 8.58595 12.8715 8.26925 13.4908 7.65899C14.6378 6.52901 14.8127 4.61241 14.2563 3.53136ZM3.41472 13.1006C3.22177 13.1217 3.02704 13.0823 2.85741 12.988C2.68777 12.8937 2.55159 12.749 2.46767 12.574C2.38374 12.399 2.3562 12.2022 2.38886 12.0109C2.42151 11.8196 2.51274 11.6431 2.64996 11.5058C2.78719 11.3686 2.96363 11.2773 3.15495 11.2445C3.34627 11.2118 3.54302 11.2393 3.71807 11.3232C3.89311 11.407 4.03781 11.5431 4.13219 11.7128C4.22657 11.8824 4.26599 12.0771 4.24499 12.27C4.2219 12.4823 4.12701 12.6804 3.97602 12.8314C3.82504 12.9825 3.62702 13.0774 3.41472 13.1006Z" fill="#ffffff"/>
</svg>
